:FULLY-SPECIFIED
:FORCE-ALL-JOINTS-BE-3DOF
:DEGREES
102
root 7.39759 16.6666 -26.7227 4.24012 10.5324 -4.08216
lfemur -27.5617 -4.77815 -10.2941
ltibia 39.5143 0 0
lfoot -18.5629 -2.86447 0
ltoes 16.1333 0 0
rfemur -31.3196 -9.7706 8.22893
rtibia 72.6554 0 0
rfoot 12.3046 18.2734 0
rtoes -8.79484 0 0
lowerback 0.558845 2.15864 1.01414
upperback -1.38257 2.91832 1.86272
thorax -1.76787 1.45962 1.2904
lowerneck -10.3699 -4.92398 2.41059
upperneck -0.901444 -6.83149 0.947255
head 1.4083 -3.3805 -0.396923
lclavicle -1.79626e-14 2.71518e-15 0
lhumerus -46.9534 -7.90721 93.2844
lradius 48.3926 0 0
lwrist 15.7208 0 0
lhand 7.05496 8.30495 0
lfingers 7.12502 0 0
lthumb 32.3276 35.4408 0
rclavicle -1.79626e-14 2.71518e-15 0
rhumerus -42.8144 0.133314 -72.6826
rradius 50.7681 0 0
rwrist -1.88559 0 0
rhand -17.9485 -13.3427 0
rfingers 7.12502 0 0
rthumb 8.31971 -43.15 0
103
root 7.43799 16.6837 -26.7013 3.58613 10.9469 -3.76477
lfemur -26.5408 -4.16639 -11.0089
ltibia 38.9431 0 0
lfoot -18.3011 -4.15705 0
ltoes 18.3883 0 0
rfemur -33.95 -8.4554 6.36881
rtibia 77.166 0 0
rfoot 18.5834 19.8663 0
rtoes -0.906368 0 0
lowerback 1.20483 1.90995 0.633995
upperback -1.11954 2.58762 1.90814
thorax -1.87347 1.29887 1.53911
lowerneck -10.4451 -4.90722 2.35077
upperneck -0.769902 -6.80657 0.915782
head 1.46557 -3.36687 -0.401176
lclavicle -2.42765e-14 2.46844e-15 0
lhumerus -46.9435 -8.59187 93.5092
lradius 48.6697 0 0
lwrist 15.7147 0 0
lhand 7.46876 8.64525 0
lfingers 7.12502 0 0
lthumb 32.7214 35.7008 0
rclavicle -2.42765e-14 2.46844e-15 0
rhumerus -42.8167 0.393005 -71.6999
rradius 50.6969 0 0
rwrist -0.733312 0 0
rhand -18.9486 -13.8771 0
rfingers 7.12502 0 0
rthumb 7.35445 -43.7191 0
104
root 7.47441 16.7007 -26.6812 2.91202 11.3856 -3.47449
lfemur -25.5215 -3.55727 -11.6768
ltibia 38.3853 0 0
lfoot -18.0002 -5.43633 0
ltoes 20.6571 0 0
rfemur -36.5362 -7.14259 4.51818
rtibia 81.5361 0 0
rfoot 24.388 21.0372 0
rtoes 6.68456 0 0
lowerback 1.86843 1.65033 0.272733
upperback -0.844285 2.24062 1.9557
thorax -1.97298 1.12957 1.78255
lowerneck -10.5151 -4.88628 2.28885
upperneck -0.656369 -6.77523 0.883812
head 1.51624 -3.35038 -0.404391
lclavicle -2.39421e-14 2.09043e-15 0
lhumerus -46.8964 -9.30509 93.7134
lradius 48.9116 0 0
lwrist 15.6192 0 0
lhand 7.8241 8.88792 0
lfingers 7.12502 0 0
lthumb 33.0595 35.8737 0
rclavicle -2.39421e-14 2.09043e-15 0
rhumerus -42.8073 0.670549 -70.7671
rradius 50.623 0 0
rwrist 0.637572 0 0
rhand -20.0096 -14.4845 0
rfingers 7.12502 0 0
rthumb 6.33027 -44.3611 0
105
root 7.50567 16.7168 -26.6632 2.24007 11.8353 -3.226
lfemur -24.5397 -2.98038 -12.2684
ltibia 37.8632 0 0
lfoot -17.6721 -6.64755 0
ltoes 22.8459 0 0
rfemur -38.988 -5.88909 2.74384
rtibia 85.6059 0 0
rfoot 29.415 21.7816 0
rtoes 13.4282 0 0
lowerback 2.52582 1.38824 -0.0506158
upperback -0.566963 1.88863 2.00386
thorax -2.06256 0.95711 2.0092
lowerneck -10.5776 -4.86209 2.22637
upperneck -0.561855 -6.73882 0.852409
head 1.55955 -3.33169 -0.406451
lclavicle -1.87582e-14 8.98734e-16 0
lhumerus -46.8101 -10.0192 93.8862
lradius 49.1031 0 0
lwrist 15.4356 0 0
lhand 8.11355 9.01479 0
lfingers 7.12502 0 0
lthumb 33.3349 35.943 0
rclavicle -1.87582e-14 8.98734e-16 0
rhumerus -42.7903 0.95606 -69.9174
rradius 50.5522 0 0
rwrist 2.18594 0 0
rhand -21.0864 -15.1478 0
rfingers 7.12502 0 0
rthumb 5.29083 -45.0565 0
106
root 7.53062 16.7313 -26.6477 1.59258 12.283 -3.03397
lfemur -23.6313 -2.46527 -12.7543
ltibia 37.3992 0 0
lfoot -17.3285 -7.73592 0
ltoes 24.8613 0 0
rfemur -41.2156 -4.75181 1.11259
rtibia 89.2151 0 0
rfoot 33.361 22.0951 0
rtoes 18.775 0 0
lowerback 3.15315 1.13213 -0.317021
upperback -0.297715 1.54298 2.05108
thorax -2.13833 0.786902 2.20754
lowerneck -10.6307 -4.8356 2.16485
upperneck -0.487372 -6.69874 0.822634
head 1.59477 -3.31149 -0.407235
lclavicle -1.05232e-14 -1.78906e-15 0
lhumerus -46.6826 -10.7064 94.0168
lradius 49.2289 0 0
lwrist 15.1652 0 0
lhand 8.32967 9.00768 0
lfingers 7.12502 0 0
lthumb 33.5404 35.8923 0
rclavicle -1.05232e-14 -1.78906e-15 0
rhumerus -42.7698 1.23965 -69.1841
rradius 50.4904 0 0
rwrist 3.87067 0 0
rhand -22.1336 -15.8497 0
rfingers 7.12502 0 0
rthumb 4.27979 -45.7864 0
107
root 7.54917 16.7448 -26.6349 0.86225 12.7972 -3.0109
lfemur -22.7152 -2.07827 -13.012
ltibia 37.0148 0 0
lfoot -16.9218 -8.56006 0
ltoes 26.5299 0 0
rfemur -43.3286 -3.90209 -0.402242
rtibia 91.8291 0 0
rfoot 34.5992 21.6955 0
rtoes 20.1969 0 0
lowerback 3.82209 0.838996 -0.383428
upperback -0.00656493 1.15107 2.10679
thorax -2.1985 0.590831 2.32177
lowerneck -10.6975 -4.79953 2.0911
upperneck -0.378356 -6.64435 0.777982
head 1.64404 -3.28435 -0.41102
lclavicle -8.09007e-15 -5.00612e-15 0
lhumerus -46.3343 -11.3283 94.0137
lradius 49.1036 0 0
lwrist 14.7821 0 0
lhand 8.37127 8.67381 0
lfingers 7.12502 0 0
lthumb 33.5799 35.5498 0
rclavicle -8.09007e-15 -5.00612e-15 0
rhumerus -42.8024 1.53321 -68.5532
rradius 50.5559 0 0
rwrist 6.01198 0 0
rhand -22.8361 -16.6968 0
rfingers 7.12502 0 0
rthumb 3.6014 -46.6442 0
108
root 7.56954 16.7605 -26.6222 0.0489804 13.3515 -3.01884
lfemur -21.6996 -1.68525 -13.2531
ltibia 36.5891 0 0
lfoot -16.4645 -9.37117 0
ltoes 28.1756 0 0
rfemur -45.5679 -3.09241 -1.97361
rtibia 94.1873 0 0
rfoot 35.4012 20.9252 0
rtoes 21.2542 0 0
lowerback 4.56477 0.515883 -0.410696
upperback 0.313938 0.72223 2.16974
thorax -2.26633 0.376004 2.42874
lowerneck -10.7791 -4.75649 2.00933
upperneck -0.247784 -6.57984 0.723084
head 1.70316 -3.25229 -0.417072
lclavicle -2.91532e-15 -5.95947e-15 0
lhumerus -45.8911 -11.9356 93.9796
lradius 48.905 0 0
lwrist 14.393 0 0
lhand 8.35267 8.30227 0
lfingers 7.12502 0 0
lthumb 33.5623 35.182 0
rclavicle -2.91532e-15 -5.95947e-15 0
rhumerus -42.8578 1.84226 -67.8664
rradius 50.7027 0 0
rwrist 8.239 0 0
rhand -23.3724 -17.5426 0
rfingers 7.12502 0 0
rthumb 3.08349 -47.4979 0
109
root 7.59118 16.778 -26.6101 -0.817004 13.9234 -3.0523
lfemur -20.6168 -1.29552 -13.4753
ltibia 36.1286 0 0
lfoot -15.9704 -10.1468 0
ltoes 29.7479 0 0
rfemur -47.8509 -2.34397 -3.5428
rtibia 96.2122 0 0
rfoot 35.8063 19.803 0
rtoes 22.0456 0 0
lowerback 5.35557 0.175346 -0.404632
upperback 0.652533 0.272924 2.23754
thorax -2.34001 0.150742 2.52792
lowerneck -10.8715 -4.70779 1.92283
upperneck -0.103368 -6.50719 0.660672
head 1.76885 -3.2163 -0.424883
lclavicle 3.66708e-15 -5.40368e-15 0
lhumerus -45.3746 -12.508 93.9194
lradius 48.6475 0 0
lwrist 14.0081 0 0
lhand 8.28049 7.9141 0
lfingers 7.12502 0 0
lthumb 33.4937 34.8085 0
rclavicle 3.66708e-15 -5.40368e-15 0
rhumerus -42.932 2.15613 -67.1451
rradius 50.9247 0 0
rwrist 10.4547 0 0
rhand -23.7324 -18.3507 0
rfingers 7.12502 0 0
rthumb 2.73583 -48.3113 0
110
root 7.61348 16.7967 -26.5989 -1.70548 14.4907 -3.10581
lfemur -19.4991 -0.918405 -13.6766
ltibia 35.6399 0 0
lfoot -15.4535 -10.8645 0
ltoes 31.1966 0 0
rfemur -50.0951 -1.67798 -5.05112
rtibia 97.8262 0 0
rfoot 35.8536 18.3477 0
rtoes 22.6694 0 0
lowerback 6.16888 -0.170061 -0.371041
upperback 0.997955 -0.1804 2.30776
thorax -2.41774 -0.076632 2.61878
lowerneck -10.9708 -4.65471 1.83489
upperneck 0.0471821 -6.4284 0.593478
head 1.83783 -3.17739 -0.433945
lclavicle 1.03231e-14 -4.09333e-15 0
lhumerus -44.8062 -13.0252 93.8381
lradius 48.3451 0 0
lwrist 13.6371 0 0
lhand 8.16133 7.53029 0
lfingers 7.12502 0 0
lthumb 33.3804 34.449 0
rclavicle 1.03231e-14 -4.09333e-15 0
rhumerus -43.0206 2.46417 -66.4111
rradius 51.2159 0 0
rwrist 12.5619 0 0
rhand -23.9059 -19.0847 0
rfingers 7.12502 0 0
rthumb 2.5682 -49.0479 0
